<?xml version="1.0" encoding="UTF-8" standalone="no"?>
<!-- Created with Inkscape (http://www.inkscape.org/) -->

<svg
   xmlns:dc="http://purl.org/dc/elements/1.1/"
   xmlns:cc="http://creativecommons.org/ns#"
   xmlns:rdf="http://www.w3.org/1999/02/22-rdf-syntax-ns#"
   xmlns:svg="http://www.w3.org/2000/svg"
   xmlns="http://www.w3.org/2000/svg"
   xmlns:sodipodi="http://sodipodi.sourceforge.net/DTD/sodipodi-0.dtd"
   xmlns:inkscape="http://www.inkscape.org/namespaces/inkscape"
   width="297mm"
   height="210mm"
   viewBox="0 0 1052.3622 744.09448"
   id="svg2"
   version="1.1"
   inkscape:version="0.91 r13725"
   sodipodi:docname="Slide127.svg"
   inkscape:export-filename="C:\Users\laurence\Desktop\SMPS Code Club\2017-18\GameDevChallenge\Slide126.png"
   inkscape:export-xdpi="90"
   inkscape:export-ydpi="90">
  <defs
     id="defs4" />
  <sodipodi:namedview
     id="base"
     pagecolor="#ffffff"
     bordercolor="#666666"
     borderopacity="1.0"
     inkscape:pageopacity="0.0"
     inkscape:pageshadow="2"
     inkscape:zoom="0.49497475"
     inkscape:cx="566.98979"
     inkscape:cy="219.09558"
     inkscape:document-units="px"
     inkscape:current-layer="layer1"
     showgrid="false"
     inkscape:window-width="1366"
     inkscape:window-height="705"
     inkscape:window-x="-8"
     inkscape:window-y="-8"
     inkscape:window-maximized="1"
     showguides="false" />
  <metadata
     id="metadata7">
    <rdf:RDF>
      <cc:Work
         rdf:about="">
        <dc:format>image/svg+xml</dc:format>
        <dc:type
           rdf:resource="http://purl.org/dc/dcmitype/StillImage" />
        <dc:title></dc:title>
      </cc:Work>
    </rdf:RDF>
  </metadata>
  <g
     inkscape:label="Layer 1"
     inkscape:groupmode="layer"
     id="layer1"
     transform="translate(0,-308.26772)">
    <rect
       style="opacity:1;fill:#ffffff;fill-opacity:1;fill-rule:nonzero;stroke:#000000;stroke-width:10.30316353;stroke-linecap:round;stroke-linejoin:round;stroke-miterlimit:4;stroke-dasharray:none;stroke-dashoffset:0;stroke-opacity:1"
       id="rect4136"
       width="1150.4108"
       height="693.98254"
       x="25.151581"
       y="332.51379"
       rx="19.724874"
       ry="8.2179937" />
    <g
       id="g4696"
       transform="translate(0,-137.00001)">
      <rect
         ry="23.996241"
         rx="25.023277"
         y="494.26309"
         x="54.900875"
         height="65.19825"
         width="213.12372"
         id="rect4138"
         style="opacity:1;fill:#00ff00;fill-opacity:1;fill-rule:nonzero;stroke:#000000;stroke-width:9.80175114;stroke-linecap:round;stroke-linejoin:round;stroke-miterlimit:4;stroke-dasharray:none;stroke-dashoffset:0;stroke-opacity:1" />
      <text
         sodipodi:linespacing="125%"
         id="text4140"
         y="534.48669"
         x="105.1102"
         style="font-style:normal;font-variant:normal;font-weight:bold;font-stretch:normal;font-size:30px;line-height:125%;font-family:'Comic Sans MS';-inkscape-font-specification:'Comic Sans MS, Bold';text-align:start;letter-spacing:0px;word-spacing:0px;writing-mode:lr-tb;text-anchor:start;fill:#000000;fill-opacity:1;stroke:none;stroke-width:1px;stroke-linecap:butt;stroke-linejoin:miter;stroke-opacity:1"
         xml:space="preserve"><tspan
           y="534.48669"
           x="105.1102"
           id="tspan4142"
           sodipodi:role="line">Planning</tspan></text>
    </g>
    <text
       xml:space="preserve"
       style="font-style:normal;font-variant:normal;font-weight:bold;font-stretch:normal;font-size:40px;line-height:125%;font-family:'Comic Sans MS';-inkscape-font-specification:'Comic Sans MS, Bold';text-align:start;letter-spacing:0px;word-spacing:0px;writing-mode:lr-tb;text-anchor:start;fill:#000000;fill-opacity:1;stroke:none;stroke-width:1px;stroke-linecap:butt;stroke-linejoin:miter;stroke-opacity:1"
       x="48.378906"
       y="474.23721"
       id="text4713"
       sodipodi:linespacing="125%"><tspan
         sodipodi:role="line"
         id="tspan4715"
         x="48.378906"
         y="474.23721">Name of Game</tspan></text>
    <text
       xml:space="preserve"
       style="font-style:normal;font-variant:normal;font-weight:bold;font-stretch:normal;font-size:40px;line-height:125%;font-family:'Comic Sans MS';-inkscape-font-specification:'Comic Sans MS, Bold';text-align:start;letter-spacing:0px;word-spacing:0px;writing-mode:lr-tb;text-anchor:start;fill:#000000;fill-opacity:1;stroke:none;stroke-width:1px;stroke-linecap:butt;stroke-linejoin:miter;stroke-opacity:1"
       x="48.378906"
       y="516.01453"
       id="text4713-6"
       sodipodi:linespacing="125%"><tspan
         sodipodi:role="line"
         id="tspan4735"
         x="48.378906"
         y="516.01453">Synopsis</tspan></text>
    <text
       xml:space="preserve"
       style="font-style:normal;font-variant:normal;font-weight:bold;font-stretch:normal;font-size:40px;line-height:125%;font-family:'Comic Sans MS';-inkscape-font-specification:'Comic Sans MS, Bold';text-align:start;letter-spacing:0px;word-spacing:0px;writing-mode:lr-tb;text-anchor:start;fill:#000000;fill-opacity:1;stroke:none;stroke-width:1px;stroke-linecap:butt;stroke-linejoin:miter;stroke-opacity:1"
       x="49.238281"
       y="568.92468"
       id="text4713-6-2"
       sodipodi:linespacing="125%"><tspan
         sodipodi:role="line"
         id="tspan5518"
         x="49.238281"
         y="568.92468">Goal(s)</tspan></text>
    <text
       xml:space="preserve"
       style="font-style:normal;font-variant:normal;font-weight:bold;font-stretch:normal;font-size:40px;line-height:125%;font-family:'Comic Sans MS';-inkscape-font-specification:'Comic Sans MS, Bold';text-align:start;letter-spacing:0px;word-spacing:0px;writing-mode:lr;text-anchor:start;fill:#000000;fill-opacity:1;stroke:none;stroke-width:1px;stroke-linecap:butt;stroke-linejoin:miter;stroke-opacity:1;"
       x="49.238281"
       y="616.05359"
       id="text4713-6-2-4"
       sodipodi:linespacing="125%"><tspan
         sodipodi:role="line"
         id="tspan5552">Game Style/Genre</tspan></text>
    <text
       xml:space="preserve"
       style="font-style:normal;font-variant:normal;font-weight:bold;font-stretch:normal;font-size:40px;line-height:125%;font-family:'Comic Sans MS';-inkscape-font-specification:'Comic Sans MS, Bold';text-align:start;letter-spacing:0px;word-spacing:0px;writing-mode:lr-tb;text-anchor:start;fill:#000000;fill-opacity:1;stroke:none;stroke-width:1px;stroke-linecap:butt;stroke-linejoin:miter;stroke-opacity:1"
       x="49.238281"
       y="674.94031"
       id="text4713-6-2-4-3"
       sodipodi:linespacing="125%"><tspan
         sodipodi:role="line"
         id="tspan4396"
         x="49.238281"
         y="674.94031">Game 'World'</tspan></text>
    <text
       xml:space="preserve"
       style="font-style:normal;font-variant:normal;font-weight:bold;font-stretch:normal;font-size:40px;line-height:125%;font-family:'Comic Sans MS';-inkscape-font-specification:'Comic Sans MS, Bold';text-align:start;letter-spacing:0px;word-spacing:0px;writing-mode:lr-tb;text-anchor:start;fill:#000000;fill-opacity:1;stroke:none;stroke-width:1px;stroke-linecap:butt;stroke-linejoin:miter;stroke-opacity:1"
       x="49.238281"
       y="724.94031"
       id="text4713-6-2-4-3-6"
       sodipodi:linespacing="125%"><tspan
         sodipodi:role="line"
         id="tspan4190"
         x="49.238281"
         y="724.94031">Game Characters</tspan></text>
    <g
       id="g4327"
       transform="translate(0,58.9453)">
      <rect
         ry="6.9581132"
         rx="17.98308"
         y="639.30682"
         x="454.37494"
         height="290.79825"
         width="591.25012"
         id="rect4737"
         style="opacity:1;fill:#00ff00;fill-opacity:1;fill-rule:nonzero;stroke:#000000;stroke-width:9.20175743;stroke-linecap:round;stroke-linejoin:round;stroke-miterlimit:4;stroke-dasharray:none;stroke-dashoffset:0;stroke-opacity:1" />
      <text
         sodipodi:linespacing="125%"
         id="text4739"
         y="676.39374"
         x="466.97473"
         style="font-style:normal;font-variant:normal;font-weight:bold;font-stretch:normal;font-size:25px;line-height:125%;font-family:'Comic Sans MS';-inkscape-font-specification:'Comic Sans MS, Bold';text-align:start;letter-spacing:0px;word-spacing:0px;writing-mode:lr-tb;text-anchor:start;fill:#000000;fill-opacity:1;stroke:none;stroke-width:1px;stroke-linecap:butt;stroke-linejoin:miter;stroke-opacity:1"
         xml:space="preserve"><tspan
           y="676.39374"
           x="466.97473"
           id="tspan4259"
           sodipodi:role="line">Main Character</tspan><tspan
           y="707.64374"
           x="466.97473"
           id="tspan4261"
           sodipodi:role="line">Other Characters</tspan><tspan
           y="738.89374"
           x="466.97473"
           id="tspan4263"
           sodipodi:role="line"></tspan><tspan
           y="770.14374"
           x="466.97473"
           id="tspan4265"
           sodipodi:role="line">Characteristics</tspan></text>
      <text
         sodipodi:linespacing="125%"
         id="text4739-9"
         y="675.56366"
         x="697.56366"
         style="font-style:normal;font-variant:normal;font-weight:bold;font-stretch:normal;font-size:25px;line-height:125%;font-family:'Comic Sans MS';-inkscape-font-specification:'Comic Sans MS, Bold';text-align:start;letter-spacing:0px;word-spacing:0px;writing-mode:lr-tb;text-anchor:start;fill:#000000;fill-opacity:1;stroke:none;stroke-width:1px;stroke-linecap:butt;stroke-linejoin:miter;stroke-opacity:1"
         xml:space="preserve"><tspan
           y="675.56366"
           x="697.56366"
           id="tspan4221"
           sodipodi:role="line">e.g. Mario</tspan><tspan
           y="706.81366"
           x="697.56366"
           id="tspan4223"
           sodipodi:role="line">e.g. Luigi / Bowser / Peach</tspan><tspan
           y="738.06366"
           x="697.56366"
           id="tspan4225"
           sodipodi:role="line"></tspan></text>
      <path
         inkscape:connector-curvature="0"
         id="text4739-9-5"
         d="m 729.66864,750.70522 c -0.472,0 -0.87532,0.15202 -1.20898,0.45312 -0.33366,0.29297 -0.5,0.6709 -0.5,1.13477 0,0.25228 0.0361,0.62663 0.10937,1.12305 0.0814,0.48828 0.1211,0.85905 0.1211,1.11133 0,0.32552 -0.0234,0.96744 -0.0723,1.92773 l -0.0254,0.40234 c -0.057,3.8086 -0.0641,6.53223 -0.0234,8.16797 -0.0407,2.01823 -0.0895,3.11589 -0.14648,3.29492 -0.0895,0.2767 -0.13476,0.49187 -0.13476,0.64649 0,0.44759 0.17545,0.82747 0.52539,1.13672 0.35807,0.3011 0.76497,0.45117 1.2207,0.45117 0.69173,0 1.19629,-0.33464 1.51367,-1.00195 0.28483,-0.60222 0.42774,-2.37631 0.42774,-5.32227 0.65104,-1.16374 1.16276,-1.95215 1.5371,-2.36719 0.73243,-0.83008 1.54981,-1.24609 2.45313,-1.24609 0.34993,0 0.56152,0.22428 0.63477,0.67187 0.0163,0.0977 0.0254,0.44857 0.0254,1.05079 0,0.20345 -0.0127,0.51269 -0.0371,0.92773 -0.0163,0.4069 -0.0234,0.71061 -0.0234,0.91406 0,0.74056 0.0723,1.68457 0.21875,2.83203 0.16276,1.19629 0.3418,2.12403 0.53711,2.78321 0.24414,0.8138 0.77767,1.2207 1.59961,1.2207 0.46386,0 0.86719,-0.15007 1.20898,-0.45117 0.34994,-0.29297 0.52344,-0.66732 0.52344,-1.12305 0,-0.13021 -0.0199,-0.28027 -0.0605,-0.45117 -0.16276,-0.67546 -0.30013,-1.46582 -0.41406,-2.36914 -0.0326,-0.28483 -0.11393,-1.08236 -0.24414,-2.39258 -0.0488,-1.00911 -0.0941,-2.01269 -0.13477,-3.01367 -0.0976,-1.21257 -0.37435,-2.11328 -0.83007,-2.69922 -0.61036,-0.78125 -1.61231,-1.17188 -3.00391,-1.17188 -0.77311,0 -1.5,0.14649 -2.18359,0.43946 -0.67546,0.28483 -1.31023,0.7207 -1.9043,1.30664 0,-0.78125 0.0234,-1.56966 0.0723,-2.36719 0.0488,-0.83821 0.0742,-1.66471 0.0742,-2.47851 0,-1.00912 -0.0778,-1.75782 -0.23242,-2.2461 -0.27669,-0.86263 -0.81738,-1.29492 -1.62305,-1.29492 z m -29.01757,0.33008 c -0.60222,0 -1.06511,0.28939 -1.39063,0.86719 -0.26042,0.45572 -0.39062,0.97656 -0.39062,1.5625 l 0,13.83007 c 0,0.19532 -0.0127,0.4974 -0.0371,0.9043 -0.0244,0.39876 -0.0371,0.69531 -0.0371,0.89063 0,0.43945 0.1556,0.80468 0.46484,1.09765 0.31738,0.29297 0.69531,0.43946 1.13477,0.43946 0.43131,0 0.7985,-0.15007 1.09961,-0.45118 1.02539,0.39877 2.10677,0.59766 3.24609,0.59766 1.92057,0 3.5319,-0.6709 4.83398,-2.01367 1.27767,-1.31022 1.91602,-2.90886 1.91602,-4.79688 0,-1.85547 -0.54785,-3.43424 -1.64648,-4.73633 -1.18002,-1.3916 -2.72624,-2.08789 -4.63868,-2.08789 -0.51269,0 -1.04622,0.085 -1.59961,0.25586 -0.55338,0.16276 -1.13216,0.41244 -1.73437,0.7461 l 0,-4.67578 c 0,-0.1058 0.0127,-0.27214 0.0371,-0.5 0.0326,-0.23601 0.0488,-0.40788 0.0488,-0.51368 0,-0.94401 -0.43588,-1.41601 -1.30664,-1.41601 z m 70.41015,0.93945 c -0.52083,0 -0.97103,0.17546 -1.35351,0.52539 -0.38249,0.34994 -0.57422,0.77669 -0.57422,1.28125 0,0.50456 0.19173,0.93327 0.57422,1.28321 0.38248,0.34993 0.83268,0.52343 1.35351,0.52343 0.52084,0 0.9694,-0.1735 1.34375,-0.52343 0.38249,-0.34994 0.57422,-0.77865 0.57422,-1.28321 0,-0.50456 -0.19173,-0.93131 -0.57422,-1.28125 -0.37435,-0.34993 -0.82291,-0.52539 -1.34375,-0.52539 z m 18.79883,5.27344 c -0.93587,0 -1.48372,0.46126 -1.64648,1.38086 -0.24414,1.35905 -0.36719,2.56706 -0.36719,3.625 0,1.60319 0.15918,3.42252 0.47656,5.45703 0.1709,1.07422 0.69889,1.8916 1.58594,2.45312 0.78939,0.48829 1.76237,0.73243 2.91797,0.73243 1.11491,0 2.19271,-0.19174 3.23437,-0.57422 0.30925,0.61035 0.80306,0.91601 1.47852,0.91601 0.48014,0 0.88151,-0.15006 1.20703,-0.45117 0.33366,-0.29297 0.50195,-0.66732 0.50195,-1.12305 0,-0.17089 -0.0163,-0.42415 -0.0488,-0.75781 -0.0244,-0.34179 -0.0371,-0.59863 -0.0371,-0.76953 -10e-6,-0.54525 -0.004,-1.36621 -0.0117,-2.46484 -0.008,-1.09864 -0.0137,-1.92155 -0.0137,-2.4668 0,0.236 0.0778,-1.19629 0.23243,-4.29688 0.0244,-0.45572 -0.13477,-0.83365 -0.47657,-1.13476 -0.34179,-0.30111 -0.75227,-0.45117 -1.23242,-0.45117 -0.9847,0 -1.53808,0.4847 -1.66015,1.45312 -0.15463,1.21257 -0.23243,2.65202 -0.23243,4.32031 0,0.41504 0.009,1.09864 0.0254,2.05079 0.008,0.79752 0.0117,1.51009 0.0117,2.13671 -1.08235,0.26042 -2.07519,0.39063 -2.97851,0.39063 -0.17904,0 -0.36524,-0.0254 -0.56055,-0.0742 -0.18717,-0.0488 -0.38249,-0.11751 -0.58594,-0.20703 -0.15462,-0.56152 -0.27409,-1.26855 -0.35547,-2.12305 -0.0732,-0.86263 -0.10937,-1.86816 -0.10937,-3.01562 0,-0.39876 0.0579,-0.98112 0.17187,-1.7461 0.12207,-0.76497 0.18164,-1.32552 0.18164,-1.68359 1e-5,-0.45573 -0.16634,-0.83008 -0.5,-1.12305 -0.33365,-0.3011 -0.73697,-0.45312 -1.20898,-0.45312 z m -32.9707,0.12305 c -0.45573,0 -0.86263,0.15364 -1.22071,0.46289 -0.34993,0.3011 -0.52539,0.67187 -0.52539,1.11132 0,0.21973 0.0544,0.45118 0.16016,0.69532 1.81478,4.36198 3.16016,7.64257 4.03906,9.83984 0.3418,0.84635 0.92416,1.26953 1.7461,1.26953 0.43131,0 0.79296,-0.13021 1.08593,-0.39062 0.29297,-0.26042 0.46127,-0.59506 0.50196,-1.00196 0.62662,-1.27767 1.47656,-3.11132 2.55078,-5.5039 1.31836,-2.92969 1.97656,-4.54102 1.97656,-4.83399 0,-0.44759 -0.17904,-0.82194 -0.53711,-1.12304 -0.34993,-0.30111 -0.7513,-0.45313 -1.20703,-0.45313 -0.67546,0 -1.18001,0.32552 -1.51367,0.97656 -0.48015,1.12305 -0.83464,1.99838 -1.0625,2.625 -0.75684,1.87989 -1.35189,3.27963 -1.7832,4.19922 -1.34278,-3.62142 -2.24512,-5.9235 -2.70899,-6.9082 -0.30111,-0.6429 -0.80208,-0.96484 -1.50195,-0.96484 z m 52.34375,0.0234 c -1.75781,0 -3.35645,0.53711 -4.79688,1.61133 -0.1709,-0.92773 -0.70801,-1.39062 -1.61133,-1.39062 -0.50455,0 -0.89518,0.15364 -1.17187,0.46289 -0.26856,0.3011 -0.40234,0.68099 -0.40234,1.13672 0,0.25227 -0.009,0.6302 -0.0254,1.13476 -0.0163,0.49642 -0.0234,0.87077 -0.0234,1.12305 l 0,7.99609 c 0,0.45573 0.13021,0.83008 0.39062,1.12305 0.2767,0.32552 0.66732,0.48828 1.17188,0.48828 0.48828,0 0.88965,-0.1556 1.20703,-0.46484 0.31738,-0.30111 0.47656,-0.68262 0.47656,-1.14649 l -0.0117,-6.14062 c 0.78939,-1.58692 2.09864,-2.52735 3.92969,-2.82032 l 0.0625,1.23243 c 0,1.05794 0.51172,1.58789 1.53711,1.58789 1.05794,0 1.62402,-0.62207 1.69727,-1.86719 0.008,-0.13021 0.0117,-0.40332 0.0117,-0.81836 0,-2.16471 -0.8138,-3.24805 -2.4414,-3.24805 z m -38.57422,0.0742 c -0.48828,0 -0.8916,0.15365 -1.20899,0.46289 -0.31738,0.30111 -0.4746,0.68815 -0.4746,1.16016 -10e-6,0.72428 -0.0417,1.63216 -0.12305,2.72266 -0.0814,1.09049 -0.1211,1.99837 -0.1211,2.72265 0,0.46387 0.0108,1.20703 0.0352,2.23242 0.0326,1.02539 0.0488,1.77051 0.0488,2.23438 0,0.472 0.15918,0.86263 0.47656,1.17187 0.31738,0.30111 0.7207,0.45118 1.20899,0.45118 0.48828,0 0.8916,-0.15007 1.20898,-0.45118 0.31738,-0.30924 0.47461,-0.69987 0.47461,-1.17187 0,-0.46387 -0.0163,-1.20899 -0.0488,-2.23438 -0.0244,-1.02539 -0.0352,-1.76855 -0.0352,-2.23242 0,-0.72428 0.0397,-1.63216 0.12109,-2.72265 0.0814,-1.0905 0.12305,-1.99838 0.12305,-2.72266 0,-0.47201 -0.15918,-0.85905 -0.47657,-1.16016 -0.31738,-0.30924 -0.7207,-0.46289 -1.20898,-0.46289 z m -51.04883,0.0371 c -2.04264,0 -3.66667,0.78841 -4.87109,2.36719 -1.08236,1.42415 -1.62305,3.16569 -1.62305,5.22461 0,1.8636 0.68359,3.30859 2.05078,4.33398 1.23698,0.92774 2.8265,1.39063 4.77149,1.39063 1.27766,0 2.48763,-0.24414 3.62695,-0.73242 1.35905,-0.58594 2.03711,-1.3418 2.03711,-2.26954 0,-0.82194 -0.42318,-1.23242 -1.26953,-1.23242 -0.4069,0 -0.94759,0.1989 -1.62305,0.59766 -0.75684,0.44759 -1.68099,0.67187 -2.77148,0.67187 -0.71615,0 -1.35092,-0.10677 -1.9043,-0.31836 -0.55339,-0.21158 -1.02539,-0.52799 -1.41602,-0.95117 l 4.11524,-1.82031 c 1.37532,-0.61035 2.29036,-1.07324 2.74609,-1.39062 1.00098,-0.69174 1.50195,-1.48568 1.50195,-2.38086 0,-1.26954 -0.6149,-2.20443 -1.84375,-2.80664 -0.93587,-0.45573 -2.11132,-0.6836 -3.52734,-0.6836 z m 29.40625,0.0117 c -2.01823,0 -3.7526,0.69987 -5.20117,2.09961 -1.44857,1.3916 -2.17188,3.06803 -2.17188,5.0293 0,2.09147 0.48828,3.66113 1.46485,4.71093 0.9847,1.04981 2.4567,1.57618 4.41797,1.57618 0.39876,0 0.88346,-0.0941 1.45312,-0.28125 0.56966,-0.17904 1.22982,-0.44857 1.97852,-0.80665 0.8138,0.81381 1.4069,1.22071 1.78125,1.22071 0.43131,0 0.80924,-0.14095 1.13476,-0.42578 0.33366,-0.28483 0.50196,-0.64291 0.50196,-1.07422 0,-0.0977 -0.15918,-0.4974 -0.47657,-1.19727 -0.34993,-0.77311 -0.53808,-1.19629 -0.5625,-1.26953 -0.21972,-0.68359 -0.32812,-1.80306 -0.32812,-3.35742 0,-0.65918 0.0198,-1.23242 0.0605,-1.7207 0.0488,-0.49642 0.11394,-0.9069 0.19532,-1.23243 0.18717,-0.21972 0.28125,-0.47656 0.28125,-0.76953 0,-0.69987 -0.61491,-1.31478 -1.84375,-1.84375 -1.01726,-0.43945 -1.91244,-0.6582 -2.68555,-0.6582 z m 32.21484,0.0859 c -2.2054,0 -3.92708,0.83008 -5.16406,2.49023 -1.04166,1.40788 -1.53353,3.01009 -1.47656,4.8086 0.057,1.88802 0.67904,3.39811 1.86719,4.52929 1.08235,1.03353 2.37532,1.55078 3.88086,1.55078 1.90429,0 3.4235,-0.74511 4.55468,-2.23437 1.00912,-1.33464 1.51368,-2.94596 1.51368,-4.83399 0,-1.73339 -0.4323,-3.18554 -1.29493,-4.35742 -0.96028,-1.30208 -2.25325,-1.95312 -3.88086,-1.95312 z m -76.02539,2.66015 c 0.94401,0 1.69987,0.35808 2.26954,1.07422 0.54524,0.69173 0.81835,1.56706 0.81835,2.625 0,1.05795 -0.33463,1.93685 -1.00195,2.63672 -0.66732,0.69173 -1.51725,1.03711 -2.55078,1.03711 -0.79753,0 -1.75423,-0.24056 -2.86914,-0.7207 -0.008,-2.68555 -0.008,-4.41439 0,-5.1875 0.69173,-0.48828 1.31575,-0.85352 1.86914,-1.09766 0.55339,-0.24414 1.04167,-0.36719 1.46484,-0.36719 z m 43.96875,0.17188 c 0.0895,0 0.19629,0.0199 0.31836,0.0605 0.13021,0.0326 0.2767,0.0885 0.43946,0.16992 -0.0733,0.41504 -0.13119,0.79492 -0.17188,1.13672 -0.0326,0.33366 -0.0488,0.6302 -0.0488,0.89062 0,0.96029 0.12305,2.40886 0.36719,4.3457 -0.39876,0.32553 -0.82747,0.57325 -1.2832,0.74414 -0.44759,0.16277 -0.92318,0.24415 -1.42774,0.24415 -0.78125,0 -1.36718,-0.27312 -1.75781,-0.81836 -0.39062,-0.55339 -0.58594,-1.37435 -0.58594,-2.46485 0,-1.13932 0.41602,-2.14127 1.2461,-3.0039 0.83008,-0.87077 1.79752,-1.30469 2.90429,-1.30469 z m -29.56445,0.0234 c 0.87891,0 1.58952,0.1556 2.13477,0.46484 -0.65105,0.42318 -1.52442,0.88249 -2.62305,1.37891 -0.91146,0.39062 -1.82845,0.78483 -2.74805,1.18359 0.32552,-1.00911 0.75781,-1.76497 1.29492,-2.26953 0.53711,-0.50456 1.18457,-0.75781 1.94141,-0.75781 z m 61.46094,0.36718 c 1.48112,0.008 2.17025,1.32097 2.06445,3.94141 -0.0407,0.96029 -0.35905,1.72168 -0.95312,2.2832 -0.52084,0.48015 -1.13575,0.72071 -1.84375,0.72071 -0.58594,0 -1.09766,-0.20801 -1.53711,-0.62305 -0.55339,-0.52083 -0.83008,-1.26953 -0.83008,-2.24609 0,-1.03353 0.24414,-1.93588 0.73242,-2.70899 0.5778,-0.9196 1.36621,-1.37532 2.36719,-1.36719 z m 7.82617,21.12891 c -0.47201,0 -0.87533,0.15202 -1.20898,0.45312 -0.33366,0.29297 -0.5,0.6709 -0.5,1.13477 0,0.25228 0.0361,0.62663 0.10937,1.12305 0.0814,0.48828 0.12109,0.85905 0.12109,1.11133 0,0.32552 -0.0234,0.96744 -0.0723,1.92773 l -0.0254,0.40234 c -0.057,3.8086 -0.0641,6.53223 -0.0234,8.16797 -0.0407,2.01823 -0.0895,3.11589 -0.14648,3.29492 -0.0895,0.2767 -0.13477,0.49187 -0.13477,0.64649 0,0.44759 0.17546,0.82747 0.52539,1.13672 0.35807,0.3011 0.76498,0.45117 1.2207,0.45117 0.69174,0 1.19629,-0.33464 1.51368,-1.00195 0.28483,-0.60222 0.42773,-2.37631 0.42773,-5.32227 0.65104,-1.16374 1.16276,-1.95215 1.53711,-2.36719 0.73242,-0.83008 1.5498,-1.24609 2.45312,-1.24609 0.34994,0 0.56153,0.22428 0.63477,0.67187 0.0163,0.0977 0.0254,0.44857 0.0254,1.05079 0,0.20345 -0.0127,0.51269 -0.0371,0.92773 -0.0163,0.4069 -0.0234,0.71061 -0.0234,0.91406 0,0.74056 0.0723,1.68457 0.21875,2.83203 0.16276,1.19629 0.3418,2.12403 0.53711,2.78321 0.24414,0.8138 0.77767,1.2207 1.59961,1.2207 0.46387,0 0.86719,-0.15007 1.20899,-0.45117 0.34993,-0.29297 0.52343,-0.66732 0.52343,-1.12305 10e-6,-0.13021 -0.0199,-0.28027 -0.0605,-0.45117 -0.16276,-0.67546 -0.30013,-1.46582 -0.41406,-2.36914 -0.0326,-0.28483 -0.11394,-1.08236 -0.24414,-2.39258 -0.0488,-1.00911 -0.0941,-2.01269 -0.13477,-3.01367 -0.0977,-1.21257 -0.37435,-2.11328 -0.83008,-2.69922 -0.61035,-0.78125 -1.6123,-1.17188 -3.00391,-1.17188 -0.77311,0 -1.5,0.14649 -2.18359,0.43946 -0.67545,0.28483 -1.31022,0.7207 -1.9043,1.30664 0,-0.78125 0.0234,-1.56966 0.0723,-2.36719 0.0488,-0.83821 0.0742,-1.66471 0.0742,-2.47851 0,-1.00912 -0.0778,-1.75782 -0.23242,-2.2461 -0.2767,-0.86263 -0.81739,-1.29492 -1.62305,-1.29492 z m -73.40234,2.50391 c -0.47201,0 -0.87338,0.15006 -1.20703,0.45117 -0.33366,0.3011 -0.50196,0.67903 -0.50196,1.13476 0,0.28483 0.0163,0.68815 0.0488,1.20899 0.0326,0.60221 0.0544,1.03255 0.0625,1.29297 -1.08236,-0.0977 -1.77507,-0.14649 -2.07617,-0.14649 -0.48828,0 -0.88607,0.15918 -1.19531,0.47657 -0.30925,0.31738 -0.46485,0.70442 -0.46485,1.16015 0,0.94401 0.50814,1.47201 1.52539,1.58594 1.02539,0.10579 1.79037,0.1709 2.29492,0.19531 0.14649,3.2308 0.22071,5.33952 0.22071,6.32422 0,0.29297 -0.0127,0.73242 -0.0371,1.31836 -0.0244,0.58594 -0.0371,1.02539 -0.0371,1.31836 0,0.43945 0.17904,0.80469 0.53711,1.09766 0.32552,0.27669 0.71256,0.41601 1.16015,0.41601 1.18002,0 1.76954,-0.93685 1.76954,-2.80859 0,-0.17904 -0.004,-0.41048 -0.0117,-0.69532 -0.008,-0.29296 -0.0117,-0.49186 -0.0117,-0.59765 0,-1.00912 -0.0742,-3.15755 -0.2207,-6.44531 0.43945,-0.0651 0.82649,-0.0977 1.16015,-0.0977 0.1709,0 0.36979,0.007 0.59766,0.0234 0.236,0.008 0.44043,0.0137 0.61133,0.0137 0.48828,0 0.8916,-0.1556 1.20898,-0.46485 0.31738,-0.30924 0.47461,-0.69628 0.47461,-1.16015 0,-0.76498 -0.32552,-1.26042 -0.97656,-1.48828 -0.3418,-0.12207 -0.98015,-0.1836 -1.91602,-0.1836 -0.31738,0 -0.72786,0.0361 -1.23242,0.10938 l 0.0234,-1 c 0,-2.02637 -0.60222,-3.03906 -1.80664,-3.03906 z m 64.11132,0 c -0.472,0 -0.87337,0.15006 -1.20703,0.45117 -0.33366,0.3011 -0.50195,0.67903 -0.50195,1.13476 0,0.28483 0.0163,0.68815 0.0488,1.20899 0.0325,0.60221 0.0544,1.03255 0.0625,1.29297 -1.08236,-0.0977 -1.77507,-0.14649 -2.07617,-0.14649 -0.48828,0 -0.88607,0.15918 -1.19532,0.47657 -0.30924,0.31738 -0.46484,0.70442 -0.46484,1.16015 0,0.94401 0.50814,1.47201 1.52539,1.58594 1.02539,0.10579 1.79037,0.1709 2.29492,0.19531 0.14649,3.2308 0.22071,5.33952 0.22071,6.32422 0,0.29297 -0.0127,0.73242 -0.0371,1.31836 -0.0244,0.58594 -0.0371,1.02539 -0.0371,1.31836 0,0.43945 0.17903,0.80469 0.53711,1.09766 0.32552,0.27669 0.71256,0.41601 1.16015,0.41601 1.18002,0 1.76953,-0.93685 1.76953,-2.80859 0,-0.17904 -0.004,-0.41048 -0.0117,-0.69532 -0.008,-0.29296 -0.0117,-0.49186 -0.0117,-0.59765 0,-1.00912 -0.0742,-3.15755 -0.22071,-6.44531 0.43946,-0.0651 0.8265,-0.0977 1.16016,-0.0977 0.1709,0 0.36979,0.007 0.59766,0.0234 0.236,0.008 0.44043,0.0137 0.61132,0.0137 0.48828,0 0.89161,-0.1556 1.20899,-0.46485 0.31738,-0.30924 0.47461,-0.69628 0.47461,-1.16015 0,-0.76498 -0.32552,-1.26042 -0.97656,-1.48828 -0.3418,-0.12207 -0.98015,-0.1836 -1.91602,-0.1836 -0.31738,0 -0.72787,0.0361 -1.23242,0.10938 l 0.0234,-1 c -10e-6,-2.02637 -0.60222,-3.03906 -1.80665,-3.03906 z m -29.21093,3.72265 c -0.48015,0 -0.88705,0.15007 -1.22071,0.45117 -0.32552,0.29297 -0.48828,0.66732 -0.48828,1.12305 0,0.236 0.0127,0.59766 0.0371,1.08594 0.0326,0.48014 0.0488,0.84375 0.0488,1.08789 0,0.78125 -0.0579,1.86621 -0.17187,3.25781 -0.11394,1.3916 -0.16993,2.47852 -0.16993,3.25977 0,0.22786 0.0234,0.57324 0.0723,1.03711 0.0488,0.45573 0.0742,0.79752 0.0742,1.02539 0,0.46386 0.15918,0.84733 0.47656,1.14843 0.31738,0.30925 0.71875,0.4629 1.20703,0.4629 0.48828,0 0.8916,-0.15365 1.20899,-0.4629 0.32552,-0.3011 0.48828,-0.68457 0.48828,-1.14843 0,-0.22787 -0.029,-0.56966 -0.0859,-1.02539 -0.0488,-0.46387 -0.0723,-0.80925 -0.0723,-1.03711 0,-0.34994 0.0234,-0.70801 0.0723,-1.07422 0.057,-0.44759 0.0951,-0.80567 0.11133,-1.07422 0.4069,-1.34277 0.96745,-2.44954 1.68359,-3.32031 0.72429,-0.87891 1.46029,-1.31836 2.20899,-1.31836 0.34993,0 0.52539,0.33821 0.52539,1.01367 0,0.14648 -0.007,0.33822 -0.0234,0.57422 -0.0163,0.22786 -0.0254,0.36881 -0.0254,0.42578 0,0.21159 -0.0163,0.5752 -0.0488,1.08789 -0.0244,0.5127 -0.0371,0.87435 -0.0371,1.08594 0,0.78939 0.0615,1.63216 0.18359,2.52734 0.11394,0.84636 0.22787,1.68718 0.3418,2.52539 0.11393,0.9847 0.6709,1.47852 1.67188,1.47852 0.48014,0 0.88346,-0.15202 1.20898,-0.45313 0.32552,-0.3011 0.48828,-0.67903 0.48828,-1.13476 0,-0.62663 -0.0885,-1.44043 -0.26758,-2.44141 -0.17089,-1.00098 -0.25781,-1.81836 -0.25781,-2.45312 0,-0.15463 0.006,-0.41862 0.0137,-0.79297 l 0,-0.86719 c 0,-1.71712 -0.19531,-3.00651 -0.58593,-3.86914 -0.58594,-1.28581 -1.64942,-1.92969 -3.1875,-1.92969 -1.31836,0 -2.57162,0.59863 -3.75977,1.79492 l -0.0117,-0.13476 c -0.0732,-1.27767 -0.6429,-1.91602 -1.70898,-1.91602 z m -44.28711,0.30469 c -2.0752,0 -3.62142,0.16634 -4.63867,0.5 -1.7334,0.56966 -2.59961,1.67285 -2.59961,3.30859 0,1.1556 0.57324,2.13575 1.7207,2.94141 0.472,0.32552 1.54622,0.85905 3.22266,1.59961 1.14746,0.50456 1.7207,0.96387 1.7207,1.37891 -0.008,0.66731 -0.83822,1.00195 -2.49024,1.00195 -0.38248,0 -0.92675,-0.11751 -1.63476,-0.35352 -0.70801,-0.236 -1.2487,-0.35547 -1.62305,-0.35547 -0.96842,0 -1.45312,0.40691 -1.45312,1.22071 0,0.88704 0.60937,1.55989 1.83008,2.01562 0.89518,0.33366 1.88444,0.5 2.96679,0.5 1.52995,0 2.81934,-0.28939 3.86914,-0.86718 1.30209,-0.72429 1.95313,-1.78581 1.95313,-3.18555 0,-1.07422 -0.58952,-2.03809 -1.76953,-2.89258 -0.56967,-0.41504 -1.66016,-0.99382 -3.27149,-1.73437 -1.18001,-0.53711 -1.76953,-0.96387 -1.76953,-1.28126 0,-0.5371 0.98014,-0.80664 2.94141,-0.80664 0.34179,0 0.67643,0.029 1.00195,0.0859 0.16276,0.67546 0.64551,1.01367 1.45117,1.01367 0.78939,0 1.18555,-0.73242 1.18555,-2.19726 0,-0.76498 -0.26953,-1.28939 -0.80664,-1.57422 -0.39063,-0.21159 -0.99284,-0.31836 -1.80664,-0.31836 z m 102.49023,0 c -2.07519,0 -3.62142,0.16634 -4.63867,0.5 -1.7334,0.56966 -2.59961,1.67285 -2.59961,3.30859 0,1.1556 0.57324,2.13575 1.7207,2.94141 0.47201,0.32552 1.54623,0.85905 3.22266,1.59961 1.14746,0.50456 1.7207,0.96387 1.7207,1.37891 -0.008,0.66731 -0.83821,1.00195 -2.49023,1.00195 -0.38249,0 -0.92676,-0.11751 -1.63477,-0.35352 -0.708,-0.236 -1.24869,-0.35547 -1.62304,-0.35547 -0.96843,0 -1.45313,0.40691 -1.45313,1.22071 0,0.88704 0.60938,1.55989 1.83008,2.01562 0.89518,0.33366 1.88444,0.5 2.9668,0.5 1.52994,0 2.81933,-0.28939 3.86914,-0.86718 1.30208,-0.72429 1.95312,-1.78581 1.95312,-3.18555 0,-1.07422 -0.58952,-2.03809 -1.76953,-2.89258 -0.56966,-0.41504 -1.66016,-0.99382 -3.27148,-1.73437 -1.18002,-0.53711 -1.76954,-0.96387 -1.76954,-1.28126 10e-6,-0.5371 0.98015,-0.80664 2.94141,-0.80664 0.3418,0 0.67643,0.029 1.00195,0.0859 0.16276,0.67546 0.64551,1.01367 1.45118,1.01367 0.78938,0 1.18554,-0.73242 1.18554,-2.19726 0,-0.76498 -0.26953,-1.28939 -0.80664,-1.57422 -0.39062,-0.21159 -0.99284,-0.31836 -1.80664,-0.31836 z m -77.92969,0.1582 c -1.75781,0 -3.35644,0.53711 -4.79687,1.61133 -0.1709,-0.92773 -0.70801,-1.39062 -1.61133,-1.39062 -0.50456,0 -0.89518,0.15364 -1.17187,0.46289 -0.26856,0.3011 -0.40235,0.68099 -0.40235,1.13672 0,0.25227 -0.009,0.6302 -0.0254,1.13476 -0.0163,0.49642 -0.0234,0.87077 -0.0234,1.12305 l 0,7.99609 c 0,0.45573 0.13021,0.83008 0.39063,1.12305 0.27669,0.32552 0.66732,0.48828 1.17187,0.48828 0.48829,0 0.88965,-0.1556 1.20704,-0.46484 0.31738,-0.30111 0.47656,-0.68262 0.47656,-1.14649 l -0.0117,-6.14062 c 0.78939,-1.58692 2.09863,-2.52735 3.92969,-2.82032 l 0.0625,1.23243 c 0,1.05794 0.51172,1.58789 1.53711,1.58789 1.05794,0 1.62402,-0.62207 1.69726,-1.86719 0.008,-0.13021 0.0117,-0.40332 0.0117,-0.81836 0,-2.16471 -0.8138,-3.24805 -2.44141,-3.24805 z m 10.03516,0.11133 c -2.04264,0 -3.66667,0.78841 -4.87109,2.36719 -1.08236,1.42415 -1.62305,3.16569 -1.62305,5.22461 0,1.8636 0.68359,3.30859 2.05078,4.33398 1.23698,0.92774 2.8265,1.39063 4.77149,1.39063 1.27766,0 2.48763,-0.24414 3.62695,-0.73242 1.35905,-0.58594 2.03711,-1.3418 2.03711,-2.26954 0,-0.82194 -0.42318,-1.23242 -1.26953,-1.23242 -0.4069,0 -0.94759,0.1989 -1.62305,0.59766 -0.75684,0.44759 -1.68099,0.67187 -2.77148,0.67187 -0.71615,0 -1.35092,-0.10677 -1.9043,-0.31836 -0.55339,-0.21158 -1.02539,-0.52799 -1.41602,-0.95117 l 4.11524,-1.82031 c 1.37532,-0.61035 2.29036,-1.07324 2.74609,-1.39062 1.00098,-0.69174 1.50195,-1.48568 1.50195,-2.38086 0,-1.26954 -0.6149,-2.20443 -1.84375,-2.80664 -0.93587,-0.45573 -2.11132,-0.6836 -3.52734,-0.6836 z m 27.92969,0.25586 c -2.38444,0 -4.278,0.70703 -5.67774,2.12305 -1.35091,1.36719 -2.02539,3.15755 -2.02539,5.37109 0,1.64388 0.50456,2.99479 1.51367,4.05274 1.01726,1.0498 2.33562,1.57617 3.95508,1.57617 0.61849,0 1.18815,-0.10677 1.70899,-0.31836 0.52083,-0.21159 0.98926,-0.528 1.40429,-0.95117 -0.0976,1.57877 -0.42317,2.72884 -0.97656,3.45312 -0.5778,0.74056 -1.47298,1.11133 -2.68554,1.11133 -0.52898,0 -1.13672,-0.0687 -1.82032,-0.20703 -0.68359,-0.13835 -1.20801,-0.20703 -1.57422,-0.20703 -0.46386,0 -0.83821,0.13737 -1.12304,0.41406 -0.28483,0.27669 -0.42774,0.63835 -0.42774,1.08594 0,1.25325 1.58431,1.88086 4.75,1.88086 2.70996,0 4.59798,-0.79395 5.66406,-2.38086 0.79753,-1.18815 1.23698,-3.09603 1.31836,-5.72461 0.0651,-2.12403 0.26758,-4.14226 0.60938,-6.05469 0.1709,-0.96029 0.25586,-1.71257 0.25586,-2.25781 0,-1.09864 -0.5153,-1.70996 -1.54883,-1.83203 -0.3418,-0.38249 -0.79036,-0.66634 -1.34375,-0.85352 -0.55338,-0.18717 -1.21159,-0.28125 -1.97656,-0.28125 z m -27.92969,2.69727 c 0.87891,0 1.58952,0.1556 2.13477,0.46484 -0.65105,0.42318 -1.52442,0.88249 -2.62305,1.37891 -0.91146,0.39062 -1.82845,0.78483 -2.74805,1.18359 0.32552,-1.00911 0.75782,-1.76497 1.29492,-2.26953 0.53711,-0.50456 1.18457,-0.75781 1.94141,-0.75781 z m 27.80664,0.0859 c 0.25228,0 0.5127,0.0397 0.78125,0.1211 0.26856,0.0814 0.54167,0.20442 0.81836,0.36718 -0.20345,1.65202 -0.38249,2.86915 -0.53711,3.6504 -0.0895,0.71614 -0.45117,1.43945 -1.08594,2.17187 -0.67545,0.77311 -1.3483,1.16016 -2.01562,1.16016 -0.73242,0 -1.28027,-0.24414 -1.64649,-0.73243 -0.36621,-0.48828 -0.55078,-1.21712 -0.55078,-2.18554 0,-1.31022 0.3418,-2.37533 1.02539,-3.19727 0.76498,-0.90332 1.83562,-1.35547 3.21094,-1.35547 z m -22.72851,21.39844 c -0.48829,0 -0.89161,0.1556 -1.20899,0.46484 -0.31738,0.30111 -0.47656,0.6862 -0.47656,1.15821 0,0.34993 0.0163,0.76595 0.0488,1.24609 0.0407,0.47201 0.0605,0.88249 0.0605,1.23242 0,1.16374 -0.0199,2.50749 -0.0605,4.0293 -0.0326,1.51367 -0.0488,2.85905 -0.0488,4.03906 0,0.64291 -0.0488,1.60873 -0.14649,2.89453 -0.0895,1.27767 -0.13476,2.23796 -0.13476,2.88086 0,1.36719 0.57519,2.05079 1.72266,2.05079 0.48828,0 0.88964,-0.1556 1.20703,-0.46485 0.31738,-0.30924 0.47656,-0.69987 0.47656,-1.17187 0,-1.03353 0.0417,-2.11491 0.12305,-3.2461 0.42317,-0.25228 0.96028,-0.61946 1.61132,-1.09961 0.0733,0.0977 0.72787,0.93132 1.96485,2.50196 0.79752,1.00911 1.39616,1.88444 1.79492,2.625 0.33366,0.61849 0.82194,0.92773 1.46484,0.92773 0.45573,0 0.86263,-0.15918 1.22071,-0.47656 0.35807,-0.30925 0.53711,-0.68718 0.53711,-1.13477 0,-0.54524 -0.61491,-1.63574 -1.84375,-3.27148 l -2.53907,-3.27149 c 1.3265,-1.17187 2.4694,-2.29492 3.42969,-3.36914 0.31738,-0.34993 0.47656,-0.71159 0.47656,-1.08593 0,-0.43946 -0.17545,-0.8265 -0.52539,-1.16016 -0.34993,-0.33366 -0.75325,-0.5 -1.20898,-0.5 -0.45573,0 -0.86263,0.17904 -1.22071,0.53711 -2.26236,2.25423 -3.94596,3.80762 -5.05273,4.66211 -0.008,-0.99284 0.0117,-2.12305 0.0606,-3.39258 0.0488,-1.3265 0.0742,-2.47493 0.0742,-3.44336 0,-0.35807 -0.0218,-0.78125 -0.0625,-1.26953 -0.0407,-0.48828 -0.0606,-0.91146 -0.0606,-1.26953 0,-0.47201 -0.15918,-0.8571 -0.47656,-1.15821 -0.31739,-0.30924 -0.71875,-0.46484 -1.20703,-0.46484 z m 13.20703,6.23828 c -0.48015,0 -0.88705,0.15007 -1.22071,0.45117 -0.32552,0.29297 -0.48828,0.66732 -0.48828,1.12305 0,0.236 0.0127,0.59766 0.0371,1.08594 0.0326,0.48014 0.0488,0.84375 0.0488,1.08789 0,0.78125 -0.0579,1.86621 -0.17188,3.25781 -0.11393,1.3916 -0.16992,2.47852 -0.16992,3.25977 0,0.22786 0.0234,0.57324 0.0723,1.03711 0.0488,0.45573 0.0742,0.79752 0.0742,1.02539 0,0.46386 0.15918,0.84733 0.47656,1.14843 0.31738,0.30925 0.71875,0.4629 1.20703,0.4629 0.48828,0 0.8916,-0.15365 1.20899,-0.4629 0.32552,-0.3011 0.48828,-0.68457 0.48828,-1.14843 0,-0.22787 -0.029,-0.56966 -0.0859,-1.02539 -0.0488,-0.46387 -0.0723,-0.80925 -0.0723,-1.03711 0,-0.34994 0.0234,-0.70801 0.0723,-1.07422 0.057,-0.44759 0.0951,-0.80567 0.11133,-1.07422 0.4069,-1.34277 0.96745,-2.44954 1.68359,-3.32031 0.72429,-0.87891 1.46029,-1.31836 2.20899,-1.31836 0.34993,0 0.52539,0.33821 0.52539,1.01367 0,0.14648 -0.007,0.33822 -0.0234,0.57422 -0.0163,0.22786 -0.0254,0.36881 -0.0254,0.42578 0,0.21159 -0.0163,0.5752 -0.0488,1.08789 -0.0244,0.5127 -0.0371,0.87435 -0.0371,1.08594 0,0.78939 0.0615,1.63216 0.18359,2.52734 0.11394,0.84636 0.22787,1.68718 0.3418,2.52539 0.11393,0.9847 0.6709,1.47852 1.67188,1.47852 0.48014,0 0.88346,-0.15202 1.20898,-0.45313 0.32552,-0.3011 0.48828,-0.67903 0.48828,-1.13476 0,-0.62663 -0.0885,-1.44043 -0.26758,-2.44141 -0.17089,-1.00098 -0.25781,-1.81836 -0.25781,-2.45312 0,-0.15463 0.006,-0.41862 0.0137,-0.79297 l 0,-0.86719 c 0,-1.71712 -0.19531,-3.00651 -0.58593,-3.86914 -0.58594,-1.28581 -1.64942,-1.92969 -3.1875,-1.92969 -1.31836,0 -2.57162,0.59863 -3.75977,1.79492 l -0.0117,-0.13476 c -0.0732,-1.27767 -0.6429,-1.91602 -1.70898,-1.91602 z m 32.66601,0.30469 c -2.07519,0 -3.62142,0.16634 -4.63867,0.5 -1.7334,0.56966 -2.59961,1.67285 -2.59961,3.30859 0,1.1556 0.57324,2.13575 1.7207,2.94141 0.47201,0.32552 1.54623,0.85905 3.22266,1.59961 1.14746,0.50456 1.7207,0.96387 1.7207,1.37891 -0.008,0.66731 -0.83821,1.00195 -2.49023,1.00195 -0.38249,0 -0.92676,-0.11751 -1.63477,-0.35352 -0.708,-0.236 -1.24869,-0.35547 -1.62304,-0.35547 -0.96843,0 -1.45313,0.40691 -1.45313,1.22071 0,0.88704 0.60938,1.55989 1.83008,2.01562 0.89518,0.33366 1.88444,0.5 2.9668,0.5 1.52994,0 2.81933,-0.28939 3.86914,-0.86718 1.30208,-0.72429 1.95312,-1.78581 1.95312,-3.18555 0,-1.07422 -0.58952,-2.03809 -1.76953,-2.89258 -0.56966,-0.41504 -1.66016,-0.99382 -3.27148,-1.73437 -1.18002,-0.53711 -1.76953,-0.96387 -1.76953,-1.28126 0,-0.5371 0.98014,-0.80664 2.9414,-0.80664 0.3418,0 0.67643,0.029 1.00195,0.0859 0.16277,0.67546 0.64551,1.01367 1.45118,1.01367 0.78938,0 1.18554,-0.73242 1.18554,-2.19726 0,-0.76498 -0.26953,-1.28939 -0.80664,-1.57422 -0.39062,-0.21159 -0.99284,-0.31836 -1.80664,-0.31836 z m 12.15821,0 c -2.0752,0 -3.62142,0.16634 -4.63868,0.5 -1.73339,0.56966 -2.59961,1.67285 -2.59961,3.30859 0,1.1556 0.57325,2.13575 1.72071,2.94141 0.472,0.32552 1.54622,0.85905 3.22265,1.59961 1.14746,0.50456 1.72071,0.96387 1.72071,1.37891 -0.008,0.66731 -0.83822,1.00195 -2.49024,1.00195 -0.38248,0 -0.92676,-0.11751 -1.63476,-0.35352 -0.70801,-0.236 -1.2487,-0.35547 -1.62305,-0.35547 -0.96842,0 -1.45312,0.40691 -1.45312,1.22071 0,0.88704 0.60937,1.55989 1.83007,2.01562 0.89519,0.33366 1.88444,0.5 2.9668,0.5 1.52995,0 2.81934,-0.28939 3.86914,-0.86718 1.30208,-0.72429 1.95313,-1.78581 1.95313,-3.18555 0,-1.07422 -0.58952,-2.03809 -1.76954,-2.89258 -0.56966,-0.41504 -1.66015,-0.99382 -3.27148,-1.73437 -1.18001,-0.53711 -1.76953,-0.96387 -1.76953,-1.28126 0,-0.5371 0.98014,-0.80664 2.94141,-0.80664 0.34179,0 0.67643,0.029 1.00195,0.0859 0.16276,0.67546 0.64551,1.01367 1.45117,1.01367 0.78939,0 1.18555,-0.73242 1.18555,-2.19726 0,-0.76498 -0.26953,-1.28939 -0.80664,-1.57422 -0.39063,-0.21159 -0.99284,-0.31836 -1.80664,-0.31836 z m 26.12304,0 c -2.07519,0 -3.62142,0.16634 -4.63867,0.5 -1.7334,0.56966 -2.59961,1.67285 -2.59961,3.30859 0,1.1556 0.57324,2.13575 1.7207,2.94141 0.47201,0.32552 1.54623,0.85905 3.22266,1.59961 1.14746,0.50456 1.7207,0.96387 1.7207,1.37891 -0.008,0.66731 -0.83821,1.00195 -2.49023,1.00195 -0.38249,0 -0.92676,-0.11751 -1.63477,-0.35352 -0.708,-0.236 -1.24869,-0.35547 -1.62304,-0.35547 -0.96843,0 -1.45313,0.40691 -1.45313,1.22071 0,0.88704 0.60938,1.55989 1.83008,2.01562 0.89518,0.33366 1.88444,0.5 2.9668,0.5 1.52994,0 2.81933,-0.28939 3.86914,-0.86718 1.30208,-0.72429 1.95312,-1.78581 1.95312,-3.18555 0,-1.07422 -0.58952,-2.03809 -1.76953,-2.89258 -0.56966,-0.41504 -1.66015,-0.99382 -3.27148,-1.73437 -1.18002,-0.53711 -1.76953,-0.96387 -1.76953,-1.28126 0,-0.5371 0.98014,-0.80664 2.9414,-0.80664 0.3418,0 0.67643,0.029 1.00196,0.0859 0.16276,0.67546 0.6455,1.01367 1.45117,1.01367 0.78938,0 1.18554,-0.73242 1.18554,-2.19726 0,-0.76498 -0.26953,-1.28939 -0.80664,-1.57422 -0.39062,-0.21159 -0.99284,-0.31836 -1.80664,-0.31836 z M 721.85614,820.006 c -2.04264,0 -3.66666,0.78841 -4.87109,2.36719 -1.08236,1.42415 -1.62305,3.16569 -1.62305,5.22461 0,1.8636 0.6836,3.30859 2.05079,4.33398 1.23697,0.92774 2.82649,1.39063 4.77148,1.39063 1.27767,0 2.48763,-0.24414 3.62695,-0.73242 1.35905,-0.58594 2.03711,-1.3418 2.03711,-2.26954 0,-0.82194 -0.42318,-1.23242 -1.26953,-1.23242 -0.4069,0 -0.94759,0.1989 -1.62305,0.59766 -0.75683,0.44759 -1.68099,0.67187 -2.77148,0.67187 -0.71615,0 -1.35091,-0.10677 -1.9043,-0.31836 -0.55338,-0.21158 -1.02539,-0.52799 -1.41601,-0.95117 l 4.11523,-1.82031 c 1.37533,-0.61035 2.29037,-1.07324 2.7461,-1.39062 1.00097,-0.69174 1.50195,-1.48568 1.50195,-2.38086 0,-1.26954 -0.61491,-2.20443 -1.84375,-2.80664 -0.93587,-0.45573 -2.11133,-0.6836 -3.52735,-0.6836 z m 54.49219,0 c -2.04264,0 -3.66666,0.78841 -4.87109,2.36719 -1.08236,1.42415 -1.62305,3.16569 -1.62305,5.22461 0,1.8636 0.6836,3.30859 2.05078,4.33398 1.23698,0.92774 2.8265,1.39063 4.77149,1.39063 1.27767,0 2.48763,-0.24414 3.62695,-0.73242 1.35905,-0.58594 2.03711,-1.3418 2.03711,-2.26954 0,-0.82194 -0.42318,-1.23242 -1.26953,-1.23242 -0.4069,0 -0.94759,0.1989 -1.62305,0.59766 -0.75683,0.44759 -1.68099,0.67187 -2.77148,0.67187 -0.71615,0 -1.35091,-0.10677 -1.9043,-0.31836 -0.55339,-0.21158 -1.02539,-0.52799 -1.41602,-0.95117 l 4.11524,-1.82031 c 1.37532,-0.61035 2.29036,-1.07324 2.74609,-1.39062 1.00098,-0.69174 1.50196,-1.48568 1.50196,-2.38086 0,-1.26954 -0.61491,-2.20443 -1.84375,-2.80664 -0.93588,-0.45573 -2.11133,-0.6836 -3.52735,-0.6836 z m 38.28125,0 c -2.04264,0 -3.66666,0.78841 -4.87109,2.36719 -1.08236,1.42415 -1.62305,3.16569 -1.62305,5.22461 0,1.8636 0.68359,3.30859 2.05078,4.33398 1.23698,0.92774 2.8265,1.39063 4.77149,1.39063 1.27767,0 2.48763,-0.24414 3.62695,-0.73242 1.35905,-0.58594 2.03711,-1.3418 2.03711,-2.26954 0,-0.82194 -0.42318,-1.23242 -1.26953,-1.23242 -0.4069,0 -0.94759,0.1989 -1.62305,0.59766 -0.75683,0.44759 -1.68099,0.67187 -2.77148,0.67187 -0.71615,0 -1.35091,-0.10677 -1.9043,-0.31836 -0.55339,-0.21158 -1.02539,-0.52799 -1.41602,-0.95117 l 4.11524,-1.82031 c 1.37532,-0.61035 2.29036,-1.07324 2.74609,-1.39062 1.00098,-0.69174 1.50196,-1.48568 1.50196,-2.38086 0,-1.26954 -0.61491,-2.20443 -1.84375,-2.80664 -0.93588,-0.45573 -2.11133,-0.6836 -3.52735,-0.6836 z m -77.82031,0.0117 c -2.01823,0 -3.7526,0.69987 -5.20117,2.09961 -1.44857,1.3916 -2.17188,3.06803 -2.17188,5.0293 0,2.09147 0.48828,3.66113 1.46485,4.71093 0.9847,1.04981 2.4567,1.57618 4.41796,1.57618 0.39877,0 0.88347,-0.0941 1.45313,-0.28125 0.56966,-0.17904 1.22982,-0.44857 1.97852,-0.80665 0.8138,0.81381 1.4069,1.22071 1.78125,1.22071 0.43131,0 0.80924,-0.14095 1.13476,-0.42578 0.33366,-0.28483 0.50195,-0.64291 0.50195,-1.07422 0,-0.0977 -0.15918,-0.4974 -0.47656,-1.19727 -0.34993,-0.77311 -0.53808,-1.19629 -0.5625,-1.26953 -0.21972,-0.68359 -0.32812,-1.80306 -0.32812,-3.35742 0,-0.65918 0.0199,-1.23242 0.0605,-1.7207 0.0488,-0.49642 0.11394,-0.9069 0.19532,-1.23243 0.18717,-0.21972 0.28125,-0.47656 0.28125,-0.76953 0,-0.69987 -0.61491,-1.31478 -1.84375,-1.84375 -1.01726,-0.43945 -1.91244,-0.6582 -2.68555,-0.6582 z m -36.95117,0.0371 c -0.47201,0 -0.87891,0.15006 -1.22071,0.45117 -0.33365,0.29297 -0.5,0.66374 -0.5,1.11133 0,0.41504 0.056,0.98828 0.16993,1.7207 0.52897,3.38542 0.91959,5.58268 1.17187,6.5918 0.27669,1.11491 0.6403,2.02637 1.08789,2.73437 0.42318,0.69987 0.82455,1.04167 1.20703,1.0254 0.67546,-0.0244 1.18555,-0.31023 1.52735,-0.85547 0.24414,-0.20345 0.42675,-0.47461 0.54883,-0.81641 0.8138,-2.12402 1.43229,-3.69206 1.85546,-4.70117 0.0407,-0.12207 0.14551,-0.36068 0.31641,-0.71875 0.30111,2.04264 0.56152,3.43685 0.78125,4.18554 0.58594,1.96127 1.39258,2.95053 2.41797,2.9668 0.65104,0.008 1.17187,-0.25586 1.5625,-0.79297 0.55338,-0.77311 0.95117,-1.52539 1.19531,-2.25781 0.86263,-2.60417 1.72168,-5.5013 2.57617,-8.69141 0.0407,-0.15462 0.0606,-0.27408 0.0606,-0.35546 0,-0.4476 -0.17904,-0.82194 -0.53711,-1.12305 -0.34993,-0.30111 -0.75684,-0.45117 -1.2207,-0.45117 -0.83822,0 -1.34636,0.35091 -1.52539,1.05078 -1.20443,4.69564 -1.84278,7.16959 -1.91602,7.42187 -0.0732,-0.36621 -0.27767,-1.51465 -0.61133,-3.44336 -0.22786,-1.32649 -0.44303,-2.40429 -0.64648,-3.23437 -0.28483,-1.18001 -0.87793,-1.76953 -1.78125,-1.76953 -0.9196,0 -1.5472,0.52799 -1.88086,1.58594 -0.78125,2.45768 -1.47201,4.51204 -2.07422,6.16406 -0.21973,-1.44043 -0.38249,-2.47656 -0.48828,-3.11133 -0.0244,-0.1709 -0.0859,-0.73698 -0.18359,-1.69727 -0.0733,-0.66731 -0.16374,-1.22981 -0.26954,-1.68554 -0.20345,-0.87077 -0.74414,-1.30469 -1.62304,-1.30469 z m 37.10937,2.88086 c 0.0895,0 0.19629,0.0199 0.31836,0.0605 0.13021,0.0326 0.27669,0.0885 0.43946,0.16992 -0.0732,0.41504 -0.13119,0.79492 -0.17188,1.13672 -0.0326,0.33366 -0.0488,0.6302 -0.0488,0.89062 0,0.96029 0.12305,2.40886 0.36719,4.3457 -0.39876,0.32553 -0.82747,0.57325 -1.2832,0.74414 -0.44759,0.16277 -0.92318,0.24415 -1.42774,0.24415 -0.78125,0 -1.36719,-0.27312 -1.75781,-0.81836 -0.39063,-0.55339 -0.58594,-1.37435 -0.58594,-2.46485 0,-1.13932 0.41602,-2.14127 1.2461,-3.0039 0.83007,-0.87077 1.79752,-1.30469 2.90429,-1.30469 z m -15.11133,0.0234 c 0.87891,0 1.58952,0.1556 2.13477,0.46484 -0.65104,0.42318 -1.52441,0.88249 -2.62305,1.37891 -0.91146,0.39062 -1.82845,0.78483 -2.74804,1.18359 0.32552,-1.00911 0.75781,-1.76497 1.29492,-2.26953 0.53711,-0.50456 1.18457,-0.75781 1.9414,-0.75781 z m 54.49219,0 c 0.87891,0 1.58952,0.1556 2.13477,0.46484 -0.65104,0.42318 -1.52442,0.88249 -2.62305,1.37891 -0.91146,0.39062 -1.82845,0.78483 -2.74805,1.18359 0.32552,-1.00911 0.75782,-1.76497 1.29493,-2.26953 0.5371,-0.50456 1.18457,-0.75781 1.9414,-0.75781 z m 38.28125,0 c 0.87891,0 1.58952,0.1556 2.13477,0.46484 -0.65104,0.42318 -1.52442,0.88249 -2.62305,1.37891 -0.91146,0.39062 -1.82845,0.78483 -2.74805,1.18359 0.32552,-1.00911 0.75782,-1.76497 1.29493,-2.26953 0.53711,-0.50456 1.18457,-0.75781 1.9414,-0.75781 z m -88.42773,21.46093 c -0.48015,0 -0.88347,0.13737 -1.20899,0.41407 -0.34179,0.3011 -0.51367,0.68815 -0.51367,1.16015 l 0,16.88282 c 0,0.48828 0.15918,0.88606 0.47656,1.19531 0.31739,0.30924 0.72071,0.46484 1.20899,0.46484 1.12305,0 1.68359,-0.77409 1.68359,-2.32031 l 0,-16.22266 c 0,-0.472 -0.15364,-0.84993 -0.46289,-1.13476 -0.30924,-0.29297 -0.70345,-0.43946 -1.18359,-0.43946 z m 74.16992,0.0352 c -0.47201,0 -0.87533,0.15202 -1.20898,0.45312 -0.33366,0.29297 -0.5,0.6709 -0.5,1.13477 0,0.25228 0.0361,0.62663 0.10937,1.12305 0.0814,0.48828 0.12109,0.85905 0.12109,1.11133 0,0.32552 -0.0234,0.96744 -0.0723,1.92773 l -0.0254,0.40234 c -0.057,3.8086 -0.0641,6.53223 -0.0234,8.16797 -0.0407,2.01823 -0.0895,3.11589 -0.14648,3.29492 -0.0895,0.2767 -0.13477,0.49187 -0.13477,0.64649 0,0.44759 0.17546,0.82747 0.52539,1.13672 0.35807,0.3011 0.76497,0.45117 1.2207,0.45117 0.69174,0 1.19629,-0.33464 1.51368,-1.00195 0.28483,-0.60222 0.42773,-2.37631 0.42773,-5.32227 0.65104,-1.16374 1.16276,-1.95215 1.53711,-2.36719 0.73242,-0.83008 1.5498,-1.24609 2.45312,-1.24609 0.34994,0 0.56153,0.22428 0.63477,0.67187 0.0163,0.0977 0.0254,0.44857 0.0254,1.05079 0,0.20345 -0.0127,0.51269 -0.0371,0.92773 -0.0163,0.4069 -0.0234,0.71061 -0.0234,0.91406 0,0.74056 0.0723,1.68457 0.21875,2.83203 0.16276,1.19629 0.3418,2.12403 0.53711,2.78321 0.24414,0.8138 0.77767,1.2207 1.59961,1.2207 0.46387,0 0.86719,-0.15007 1.20899,-0.45117 0.34993,-0.29297 0.52343,-0.66732 0.52343,-1.12305 0,-0.13021 -0.0199,-0.28027 -0.0605,-0.45117 -0.16276,-0.67546 -0.30013,-1.46582 -0.41407,-2.36914 -0.0326,-0.28483 -0.11393,-1.08236 -0.24414,-2.39258 -0.0488,-1.00911 -0.0941,-2.01269 -0.13476,-3.01367 -0.0977,-1.21257 -0.37435,-2.11328 -0.83008,-2.69922 -0.61035,-0.78125 -1.6123,-1.17188 -3.00391,-1.17188 -0.77311,0 -1.5,0.14649 -2.18359,0.43946 -0.67546,0.28483 -1.31022,0.7207 -1.9043,1.30664 0,-0.78125 0.0234,-1.56966 0.0723,-2.36719 0.0488,-0.83821 0.0742,-1.66471 0.0742,-2.47851 0,-1.00912 -0.0778,-1.75782 -0.23242,-2.2461 -0.2767,-0.86263 -0.81739,-1.29492 -1.62305,-1.29492 z m -41.85938,1.26953 c -0.52083,0 -0.97102,0.17546 -1.35351,0.52539 -0.38249,0.34994 -0.57422,0.77669 -0.57422,1.28125 0,0.50456 0.19173,0.93327 0.57422,1.28321 0.38249,0.34993 0.83268,0.52343 1.35351,0.52343 0.52084,0 0.96941,-0.1735 1.34375,-0.52343 0.38249,-0.34994 0.57422,-0.77865 0.57422,-1.28321 0,-0.50456 -0.19173,-0.93131 -0.57422,-1.28125 -0.37434,-0.34993 -0.82291,-0.52539 -1.34375,-0.52539 z m 32.56836,1.23438 c -0.472,0 -0.87337,0.15006 -1.20703,0.45117 -0.33366,0.3011 -0.50195,0.67903 -0.50195,1.13476 0,0.28483 0.0163,0.68815 0.0488,1.20899 0.0326,0.60221 0.0544,1.03255 0.0625,1.29297 -1.08236,-0.0977 -1.77507,-0.14649 -2.07617,-0.14649 -0.48829,0 -0.88607,0.15918 -1.19532,0.47657 -0.30924,0.31738 -0.46484,0.70442 -0.46484,1.16015 0,0.94401 0.50814,1.47201 1.52539,1.58594 1.02539,0.10579 1.79036,0.1709 2.29492,0.19531 0.14649,3.2308 0.22071,5.33952 0.22071,6.32422 0,0.29297 -0.0127,0.73242 -0.0371,1.31836 -0.0244,0.58594 -0.0371,1.02539 -0.0371,1.31836 0,0.43945 0.17903,0.80469 0.53711,1.09766 0.32552,0.27669 0.71256,0.41601 1.16015,0.41601 1.18001,0 1.76953,-0.93685 1.76953,-2.80859 0,-0.17904 -0.004,-0.41048 -0.0117,-0.69532 -0.008,-0.29296 -0.0117,-0.49186 -0.0117,-0.59765 0,-1.00912 -0.0742,-3.15755 -0.22071,-6.44531 0.43946,-0.0651 0.8265,-0.0977 1.16016,-0.0977 0.1709,0 0.36979,0.007 0.59765,0.0234 0.23601,0.008 0.44043,0.0137 0.61133,0.0137 0.48828,0 0.8916,-0.1556 1.20899,-0.46485 0.31738,-0.30924 0.47461,-0.69628 0.47461,-1.16015 0,-0.76498 -0.32552,-1.26042 -0.97657,-1.48828 -0.34179,-0.12207 -0.98014,-0.1836 -1.91601,-0.1836 -0.31738,0 -0.72787,0.0361 -1.23242,0.10938 l 0.0234,-1 c 0,-2.02637 -0.60221,-3.03906 -1.80664,-3.03906 z m 75.3418,3.50195 c -0.5778,0 -1.02441,0.36719 -1.3418,1.09961 -0.26041,0.58594 -0.39062,1.24056 -0.39062,1.96484 0,0.4069 0.0163,1.00554 0.0488,1.79492 0.0326,0.78125 0.0488,1.37435 0.0488,1.78125 l 0,4.54102 c 0,0.88704 0.085,1.53451 0.25585,1.94141 0.24415,0.60221 0.71257,0.90429 1.4043,0.90429 0.48014,0 0.88346,-0.11946 1.20899,-0.35547 0.35807,-0.25227 0.5371,-0.59765 0.5371,-1.03711 0,-0.18717 0.007,-0.47102 0.0234,-0.85351 0.0163,-0.39063 0.0254,-0.69987 0.0254,-0.92773 0,-0.93588 0.0163,-2.22722 0.0488,-3.8711 0.0977,-0.11393 0.16634,-0.19889 0.20703,-0.25586 0.95215,-1.26953 1.89974,-2.17741 2.84375,-2.72265 0.0895,0.30924 0.13477,0.72526 0.13477,1.24609 0,0.92773 0.0976,2.29492 0.29297,4.10156 0.20345,1.7985 0.30468,3.16211 0.30468,4.08985 0,0.46386 0.15918,0.84895 0.47657,1.1582 0.31738,0.30924 0.7207,0.46484 1.20898,0.46484 0.48828,0 0.88965,-0.1556 1.20703,-0.46484 0.31739,-0.30925 0.47656,-0.69434 0.47656,-1.1582 0,-0.88705 -0.11393,-2.22168 -0.34179,-4.00391 -0.21973,-1.74154 -0.33008,-3.07617 -0.33008,-4.00391 0.30924,-0.26855 0.79753,-0.59049 1.46484,-0.96484 0.66732,-0.37435 1.09603,-0.5625 1.28321,-0.5625 0.34179,0 0.62207,0.72884 0.84179,2.18555 0.1058,0.69987 0.23959,1.88802 0.40235,3.56445 0.15462,1.52995 0.30468,2.71452 0.45117,3.55273 0.16276,0.92774 0.71256,1.39063 1.64844,1.39063 0.472,0 0.88248,-0.15007 1.23242,-0.45117 0.34993,-0.30111 0.50911,-0.68262 0.47656,-1.14649 -0.35807,-3.07617 -0.65104,-5.27343 -0.87891,-6.59179 -0.236,-1.87989 -0.41145,-2.98308 -0.52539,-3.3086 -0.56966,-1.58691 -1.65104,-2.38086 -3.24609,-2.38086 -0.69987,0 -1.35091,0.11035 -1.95312,0.33008 -0.60222,0.21973 -1.15202,0.54883 -1.64844,0.98828 -0.58594,-0.95215 -1.50456,-1.42773 -2.75781,-1.42773 -1.09864,0 -2.26335,0.71256 -3.49219,2.13672 0.0732,-0.87077 0.10937,-1.22168 0.10937,-1.05079 0,-0.42317 -0.17903,-0.81022 -0.53711,-1.16015 -0.35807,-0.35807 -0.76497,-0.53711 -1.2207,-0.53711 z m -102.11133,0.2207 c -0.48014,0 -0.88704,0.15007 -1.2207,0.45117 -0.32552,0.29297 -0.48828,0.66732 -0.48828,1.12305 0,0.236 0.0127,0.59766 0.0371,1.08594 0.0326,0.48014 0.0488,0.84375 0.0488,1.08789 0,0.78125 -0.058,1.86621 -0.17188,3.25781 -0.11393,1.3916 -0.16992,2.47852 -0.16992,3.25977 0,0.22786 0.0234,0.57324 0.0723,1.03711 0.0488,0.45573 0.0742,0.79752 0.0742,1.02539 0,0.46386 0.15918,0.84733 0.47657,1.14843 0.31738,0.30925 0.71875,0.4629 1.20703,0.4629 0.48828,0 0.8916,-0.15365 1.20898,-0.4629 0.32552,-0.3011 0.48828,-0.68457 0.48828,-1.14843 0,-0.22787 -0.029,-0.56966 -0.0859,-1.02539 -0.0488,-0.46387 -0.0723,-0.80925 -0.0723,-1.03711 0,-0.34994 0.0234,-0.70801 0.0723,-1.07422 0.057,-0.44759 0.0951,-0.80567 0.11132,-1.07422 0.4069,-1.34277 0.96745,-2.44954 1.6836,-3.32031 0.72428,-0.87891 1.46028,-1.31836 2.20898,-1.31836 0.34994,0 0.52539,0.33821 0.52539,1.01367 0,0.14648 -0.007,0.33822 -0.0234,0.57422 -0.0163,0.22786 -0.0254,0.36881 -0.0254,0.42578 0,0.21159 -0.0163,0.5752 -0.0488,1.08789 -0.0244,0.5127 -0.0371,0.87435 -0.0371,1.08594 0,0.78939 0.0615,1.63216 0.18359,2.52734 0.11393,0.84636 0.22786,1.68718 0.3418,2.52539 0.11393,0.9847 0.6709,1.47852 1.67187,1.47852 0.48015,0 0.88347,-0.15202 1.20899,-0.45313 0.32552,-0.3011 0.48828,-0.67903 0.48828,-1.13476 0,-0.62663 -0.0885,-1.44043 -0.26758,-2.44141 -0.1709,-1.00098 -0.25781,-1.81836 -0.25781,-2.45312 0,-0.15463 0.006,-0.41862 0.0137,-0.79297 l 0,-0.86719 c 0,-1.71712 -0.19531,-3.00651 -0.58594,-3.86914 -0.58594,-1.28581 -1.64941,-1.92969 -3.1875,-1.92969 -1.31836,0 -2.57161,0.59863 -3.75976,1.79492 l -0.0117,-0.13476 c -0.0733,-1.27767 -0.64291,-1.91602 -1.70899,-1.91602 z m -57.56836,0.46289 c -1.75781,0 -3.35644,0.53711 -4.79687,1.61133 -0.1709,-0.92773 -0.70801,-1.39062 -1.61133,-1.39062 -0.50456,0 -0.89518,0.15364 -1.17187,0.46289 -0.26856,0.3011 -0.40235,0.68099 -0.40235,1.13672 0,0.25227 -0.009,0.6302 -0.0254,1.13476 -0.0163,0.49642 -0.0234,0.87077 -0.0234,1.12305 l 0,7.99609 c 0,0.45573 0.13021,0.83008 0.39063,1.12305 0.27669,0.32552 0.66732,0.48828 1.17187,0.48828 0.48828,0 0.88965,-0.1556 1.20703,-0.46484 0.31739,-0.30111 0.47657,-0.68262 0.47657,-1.14649 l -0.0117,-6.14062 c 0.78939,-1.58692 2.09863,-2.52735 3.92969,-2.82032 l 0.0625,1.23243 c 0,1.05794 0.51171,1.58789 1.53711,1.58789 1.05794,0 1.62402,-0.62207 1.69726,-1.86719 0.008,-0.13021 0.0117,-0.40332 0.0117,-0.81836 0,-2.16471 -0.8138,-3.24805 -2.44141,-3.24805 z m 51.36719,0.0742 c -0.48828,0 -0.8916,0.15365 -1.20898,0.46289 -0.31739,0.30111 -0.47461,0.68815 -0.47461,1.16016 0,0.72428 -0.0417,1.63216 -0.12305,2.72266 -0.0814,1.09049 -0.12109,1.99837 -0.12109,2.72265 0,0.46387 0.0107,1.20703 0.0352,2.23242 0.0325,1.02539 0.0488,1.77051 0.0488,2.23438 0,0.472 0.15918,0.86263 0.47656,1.17187 0.31739,0.30111 0.72071,0.45118 1.20899,0.45118 0.48828,0 0.8916,-0.15007 1.20898,-0.45118 0.31738,-0.30924 0.47461,-0.69987 0.47461,-1.17187 0,-0.46387 -0.0163,-1.20899 -0.0488,-2.23438 -0.0244,-1.02539 -0.0351,-1.76855 -0.0351,-2.23242 0,-0.72428 0.0397,-1.63216 0.12109,-2.72265 0.0814,-1.0905 0.12305,-1.99838 0.12305,-2.72266 0,-0.47201 -0.15918,-0.85905 -0.47657,-1.16016 -0.31738,-0.30924 -0.7207,-0.46289 -1.20898,-0.46289 z m -21.36133,0.0371 c -2.04264,0 -3.66666,0.78841 -4.87109,2.36719 -1.08236,1.42415 -1.62305,3.16569 -1.62305,5.22461 0,1.8636 0.6836,3.30859 2.05078,4.33398 1.23698,0.92774 2.8265,1.39063 4.77149,1.39063 1.27767,0 2.48763,-0.24414 3.62695,-0.73242 1.35905,-0.58594 2.03711,-1.3418 2.03711,-2.26954 0,-0.82194 -0.42318,-1.23242 -1.26953,-1.23242 -0.4069,0 -0.94759,0.1989 -1.62305,0.59766 -0.75683,0.44759 -1.68099,0.67187 -2.77148,0.67187 -0.71615,0 -1.35091,-0.10677 -1.9043,-0.31836 -0.55338,-0.21158 -1.02539,-0.52799 -1.41602,-0.95117 l 4.11524,-1.82031 c 1.37532,-0.61035 2.29036,-1.07324 2.74609,-1.39062 1.00098,-0.69174 1.50196,-1.48568 1.50196,-2.38086 0,-1.26954 -0.61491,-2.20443 -1.84375,-2.80664 -0.93588,-0.45573 -2.11133,-0.6836 -3.52735,-0.6836 z m 81.98242,0 c -2.04264,0 -3.66666,0.78841 -4.87109,2.36719 -1.08236,1.42415 -1.62305,3.16569 -1.62305,5.22461 0,1.8636 0.6836,3.30859 2.05079,4.33398 1.23697,0.92774 2.82649,1.39063 4.77148,1.39063 1.27767,0 2.48763,-0.24414 3.62695,-0.73242 1.35905,-0.58594 2.03711,-1.3418 2.03711,-2.26954 0,-0.82194 -0.42318,-1.23242 -1.26953,-1.23242 -0.4069,0 -0.94759,0.1989 -1.62305,0.59766 -0.75683,0.44759 -1.68099,0.67187 -2.77148,0.67187 -0.71615,0 -1.35091,-0.10677 -1.9043,-0.31836 -0.55338,-0.21158 -1.02539,-0.52799 -1.41601,-0.95117 l 4.11523,-1.82031 c 1.37533,-0.61035 2.29037,-1.07324 2.7461,-1.39062 1.00097,-0.69174 1.50195,-1.48568 1.50195,-2.38086 0,-1.26954 -0.61491,-2.20443 -1.84375,-2.80664 -0.93587,-0.45573 -2.11133,-0.6836 -3.52735,-0.6836 z m 71.43555,0 c -2.04264,0 -3.66667,0.78841 -4.87109,2.36719 -1.08236,1.42415 -1.62305,3.16569 -1.62305,5.22461 0,1.8636 0.68359,3.30859 2.05078,4.33398 1.23698,0.92774 2.8265,1.39063 4.77149,1.39063 1.27767,0 2.48763,-0.24414 3.62695,-0.73242 1.35905,-0.58594 2.03711,-1.3418 2.03711,-2.26954 0,-0.82194 -0.42318,-1.23242 -1.26953,-1.23242 -0.4069,0 -0.94759,0.1989 -1.62305,0.59766 -0.75684,0.44759 -1.68099,0.67187 -2.77148,0.67187 -0.71615,0 -1.35092,-0.10677 -1.9043,-0.31836 -0.55339,-0.21158 -1.02539,-0.52799 -1.41602,-0.95117 l 4.11524,-1.82031 c 1.37532,-0.61035 2.29036,-1.07324 2.74609,-1.39062 1.00098,-0.69174 1.50196,-1.48568 1.50196,-2.38086 -10e-6,-1.26954 -0.61491,-2.20443 -1.84376,-2.80664 -0.93587,-0.45573 -2.11132,-0.6836 -3.52734,-0.6836 z m -32.36133,0.0117 c -2.01823,0 -3.7526,0.69987 -5.20117,2.09961 -1.44857,1.3916 -2.17187,3.06803 -2.17187,5.0293 0,2.09147 0.48828,3.66113 1.46484,4.71093 0.9847,1.04981 2.45671,1.57618 4.41797,1.57618 0.39876,0 0.88346,-0.0941 1.45312,-0.28125 0.56967,-0.17904 1.22982,-0.44857 1.97852,-0.80665 0.8138,0.81381 1.4069,1.22071 1.78125,1.22071 0.43131,0 0.80924,-0.14095 1.13477,-0.42578 0.33365,-0.28483 0.50195,-0.64291 0.50195,-1.07422 0,-0.0977 -0.15918,-0.4974 -0.47656,-1.19727 -0.34994,-0.77311 -0.53809,-1.19629 -0.5625,-1.26953 -0.21973,-0.68359 -0.32813,-1.80306 -0.32813,-3.35742 0,-0.65918 0.0199,-1.23242 0.0606,-1.7207 0.0488,-0.49642 0.11393,-0.9069 0.19531,-1.23243 0.18717,-0.21972 0.28125,-0.47656 0.28125,-0.76953 0,-0.69987 -0.61491,-1.31478 -1.84375,-1.84375 -1.01725,-0.43945 -1.91243,-0.6582 -2.68555,-0.6582 z m -140.92968,0.0859 c -2.20541,0 -3.92709,0.83008 -5.16407,2.49023 -1.04166,1.40788 -1.53353,3.01009 -1.47656,4.8086 0.057,1.88802 0.67904,3.39811 1.86719,4.52929 1.08235,1.03353 2.37532,1.55078 3.88086,1.55078 1.90429,0 3.4235,-0.74511 4.55469,-2.23437 1.00911,-1.33464 1.51367,-2.94596 1.51367,-4.83399 0,-1.73339 -0.43229,-3.18554 -1.29493,-4.35742 -0.96028,-1.30208 -2.25325,-1.95312 -3.88085,-1.95312 z m 127.53906,0.1582 c -2.38444,0 -4.278,0.70703 -5.67774,2.12305 -1.35091,1.36719 -2.02539,3.15755 -2.02539,5.37109 0,1.64388 0.50456,2.99479 1.51368,4.05274 1.01725,1.0498 2.33561,1.57617 3.95507,1.57617 0.61849,0 1.18815,-0.10677 1.70899,-0.31836 0.52083,-0.21159 0.98926,-0.528 1.40429,-0.95117 -0.0976,1.57877 -0.42317,2.72884 -0.97656,3.45312 -0.5778,0.74056 -1.47298,1.11133 -2.68555,1.11133 -0.52897,0 -1.13671,-0.0687 -1.82031,-0.20703 -0.68359,-0.13835 -1.20801,-0.20703 -1.57422,-0.20703 -0.46386,0 -0.83821,0.13737 -1.12304,0.41406 -0.28483,0.27669 -0.42774,0.63835 -0.42774,1.08594 0,1.25325 1.58431,1.88086 4.75,1.88086 2.70996,0 4.59798,-0.79395 5.66407,-2.38086 0.79752,-1.18815 1.23697,-3.09603 1.31835,-5.72461 0.0651,-2.12403 0.26758,-4.14226 0.60938,-6.05469 0.1709,-0.96029 0.25586,-1.71257 0.25586,-2.25781 0,-1.09864 -0.5153,-1.70996 -1.54883,-1.83203 -0.3418,-0.38249 -0.79036,-0.66634 -1.34375,-0.85352 -0.55338,-0.18717 -1.21159,-0.28125 -1.97656,-0.28125 z m 13.54883,2.67383 c 0.0895,0 0.19629,0.0199 0.31836,0.0605 0.1302,0.0326 0.27669,0.0885 0.43945,0.16992 -0.0732,0.41504 -0.13119,0.79492 -0.17188,1.13672 -0.0326,0.33366 -0.0488,0.6302 -0.0488,0.89062 0,0.96029 0.12304,2.40886 0.36718,4.3457 -0.39876,0.32553 -0.82747,0.57325 -1.2832,0.74414 -0.44759,0.16277 -0.92318,0.24415 -1.42773,0.24415 -0.78125,0 -1.36719,-0.27312 -1.75782,-0.81836 -0.39062,-0.55339 -0.58593,-1.37435 -0.58593,-2.46485 0,-1.13932 0.41601,-2.14127 1.24609,-3.0039 0.83008,-0.87077 1.79753,-1.30469 2.9043,-1.30469 z m -121.21485,0.0234 c 0.87891,0 1.58952,0.1556 2.13477,0.46484 -0.65104,0.42318 -1.52442,0.88249 -2.62305,1.37891 -0.91146,0.39062 -1.82845,0.78483 -2.74805,1.18359 0.32553,-1.00911 0.75782,-1.76497 1.29493,-2.26953 0.53711,-0.50456 1.18457,-0.75781 1.9414,-0.75781 z m 81.98242,0 c 0.87891,0 1.58952,0.1556 2.13477,0.46484 -0.65104,0.42318 -1.52441,0.88249 -2.62305,1.37891 -0.91146,0.39062 -1.82845,0.78483 -2.74804,1.18359 0.32552,-1.00911 0.75781,-1.76497 1.29492,-2.26953 0.53711,-0.50456 1.18457,-0.75781 1.9414,-0.75781 z m 71.43555,0 c 0.87891,0 1.58952,0.1556 2.13477,0.46484 -0.65104,0.42318 -1.52442,0.88249 -2.62305,1.37891 -0.91146,0.39062 -1.82845,0.78483 -2.74805,1.18359 0.32552,-1.00911 0.75782,-1.76497 1.29493,-2.26953 0.5371,-0.50456 1.18457,-0.75781 1.9414,-0.75781 z m -45.875,0.0859 c 0.25228,0 0.5127,0.0397 0.78125,0.1211 0.26856,0.0814 0.54167,0.20442 0.81836,0.36718 -0.20345,1.65202 -0.38249,2.86915 -0.53711,3.6504 -0.0895,0.71614 -0.45117,1.43945 -1.08594,2.17187 -0.67545,0.77311 -1.3483,1.16016 -2.01562,1.16016 -0.73242,0 -1.28027,-0.24414 -1.64649,-0.73243 -0.36621,-0.48828 -0.55078,-1.21712 -0.55078,-2.18554 0,-1.31022 0.3418,-2.37533 1.02539,-3.19727 0.76498,-0.90332 1.83562,-1.35547 3.21094,-1.35547 z m -127.57617,0.28125 c 1.48112,0.008 2.17025,1.32097 2.06445,3.94141 -0.0407,0.96029 -0.35905,1.72168 -0.95312,2.2832 -0.52084,0.48015 -1.13574,0.72071 -1.84375,0.72071 -0.58594,0 -1.09766,-0.20801 -1.53711,-0.62305 -0.55339,-0.52083 -0.83008,-1.26953 -0.83008,-2.24609 0,-1.03353 0.24414,-1.93588 0.73242,-2.70899 0.5778,-0.9196 1.36621,-1.37532 2.36719,-1.36719 z"
         style="font-style:normal;font-variant:normal;font-weight:bold;font-stretch:normal;font-size:25px;line-height:125%;font-family:'Comic Sans MS';-inkscape-font-specification:'Comic Sans MS, Bold';text-align:start;letter-spacing:0px;word-spacing:0px;writing-mode:lr-tb;text-anchor:start;fill:#000000;fill-opacity:1;stroke:none;stroke-width:1px;stroke-linecap:butt;stroke-linejoin:miter;stroke-opacity:1" />
      <text
         sodipodi:linespacing="125%"
         id="text4739-6"
         y="905.14185"
         x="465.83948"
         style="font-style:normal;font-variant:normal;font-weight:bold;font-stretch:normal;font-size:25px;line-height:125%;font-family:'Comic Sans MS';-inkscape-font-specification:'Comic Sans MS, Bold';text-align:start;letter-spacing:0px;word-spacing:0px;writing-mode:lr-tb;text-anchor:start;fill:#000000;fill-opacity:1;stroke:none;stroke-width:1px;stroke-linecap:butt;stroke-linejoin:miter;stroke-opacity:1"
         xml:space="preserve"><tspan
           y="905.14185"
           x="465.83948"
           id="tspan4325"
           sodipodi:role="line">Draw sketches for all your characters</tspan></text>
    </g>
  </g>
</svg>
